HIERARCHY
ROOT Hips
{
  OFFSET 57.8838 95.319 338.509
  CHANNELS 6 Xposition Yposition Zposition Zrotation Xrotation Yrotation
  JOINT LeftUpLeg
  {
    OFFSET 8.64259 1.95398 -2.38835
    CHANNELS 3 Zrotation Xrotation Yrotation
    JOINT LeftLeg
    {
      OFFSET 43.7702 0 0
      CHANNELS 3 Zrotation Xrotation Yrotation
      JOINT LeftFoot
      {
        OFFSET 40.6238 0 0
        CHANNELS 3 Zrotation Xrotation Yrotation
        JOINT LeftToeBase
        {
          OFFSET 12.7242 0 0
          CHANNELS 3 Zrotation Xrotation Yrotation
          End Site
          {
            OFFSET 0 0 0
          }
        }
      }
    }
  }
  JOINT RightUpLeg
  {
    OFFSET -8.2249 1.95398 -2.59336
    CHANNELS 3 Zrotation Xrotation Yrotation
    JOINT RightLeg
    {
      OFFSET 43.5653 0 0
      CHANNELS 3 Zrotation Xrotation Yrotation
      JOINT RightFoot
      {
        OFFSET 40.6238 0 0
        CHANNELS 3 Zrotation Xrotation Yrotation
        JOINT RightToeBase
        {
          OFFSET 12.7242 0 0
          CHANNELS 3 Zrotation Xrotation Yrotation
          End Site
          {
            OFFSET 0 0 0
          }
        }
      }
    }
  }
  JOINT Spine
  {
    OFFSET 0.165834 0.87714 6.61349
    CHANNELS 3 Zrotation Xrotation Yrotation
    JOINT Spine1
    {
      OFFSET 7.38963 1.71661e-005 0
      CHANNELS 3 Zrotation Xrotation Yrotation
      JOINT Spine2
      {
        OFFSET 11.9445 1.14441e-005 0
        CHANNELS 3 Zrotation Xrotation Yrotation
        JOINT Spine3
        {
          OFFSET 14.7254 4.19617e-005 0
          CHANNELS 3 Zrotation Xrotation Yrotation
          JOINT Spine4
          {
            OFFSET 10.9679 0 0
            CHANNELS 3 Zrotation Xrotation Yrotation
            JOINT RightShoulder
            {
              OFFSET 2.46616 -1.6653 3.69651
              CHANNELS 3 Zrotation Xrotation Yrotation
              JOINT RightArm
              {
                OFFSET 13.0012 0 0
                CHANNELS 3 Zrotation Xrotation Yrotation
                JOINT RightForeArm
                {
                  OFFSET 28.7848 1.62311e-005 0
                  CHANNELS 3 Zrotation Xrotation Yrotation
                  JOINT RightHand
                  {
                    OFFSET 26.5688 1.62095e-005 0
                    CHANNELS 3 Zrotation Xrotation Yrotation
                    End Site
                    {
                      OFFSET 0 0 0
                    }
                  }
                }
              }
            }
            JOINT LeftShoulder
            {
              OFFSET 2.38034 -1.29275 -3.7523
              CHANNELS 3 Zrotation Xrotation Yrotation
              JOINT LeftArm
              {
                OFFSET 16.3182 6.07031e-005 0
                CHANNELS 3 Zrotation Xrotation Yrotation
                JOINT LeftForeArm
                {
                  OFFSET 27.0901 0 0
                  CHANNELS 3 Zrotation Xrotation Yrotation
                  JOINT LeftHand
                  {
                    OFFSET 24.5451 1.51738e-005 0
                    CHANNELS 3 Zrotation Xrotation Yrotation
                    End Site
                    {
                      OFFSET 0 0 0
                    }
                  }
                }
              }
            }
            JOINT Neck
            {
              OFFSET 5.0226 -0.0266342 0
              CHANNELS 3 Zrotation Xrotation Yrotation
              JOINT Head
              {
                OFFSET 6.69364 2.86102e-005 0
                CHANNELS 3 Zrotation Xrotation Yrotation
                End Site
                {
                  OFFSET 0 0 0
                }
              }
            }
          }
        }
      }
    }
  }
}
MOTION
Frames:	7
Frame Time:	0.0416667
12.2797 76.828 10.1999 91.3619 32.4151 109.62 -158.781 59.1319 71.368 -67.3402 5.0186 -2.38806 54.3651 -1.70434 14.9875 34.5745 2.35304 2.68462 169.017 -8.72918 84.6181 -42.0747 -10.1765 -2.47757 73.0265 -2.38818 19.8534 50.0109 -32.6115 -9.43732 0.896119 9.6751 -91.5598 7.5294 1.1135 -3.13856 -4.14496 0.974354 -3.18446 -26.6608 2.00497 -2.65934 -6.64815 2.00498 -2.65934 98.1746 -45.3809 -88.5824 17.8764 -6.18047 -25.1757 -14.1943 2.46335 -77.4751 -11.0383 -0.448531 -0.493027 -86.6626 -50.7259 83.8446 -18.95 -16.798 4.94982 -3.26108 28.5369 -14.4944 12.4619 -1.54979 -15.5327 26.2183 -0.169442 -25.689 -14.753 5.29124 36.9794 
29.4749 77.0987 0.578687 88.6964 36.6379 109.631 -159.588 43.2657 71.2532 -67.2886 12.1484 -4.50956 57.739 11.8196 29.4618 42.4089 5.68103 2.10266 169.949 -8.93834 85.4602 -56.8602 -17.5875 -2.18119 53.4582 15.7117 13.0746 24.3814 7.54003 -10.0947 0.628372 9.64835 -91.0906 7.57967 0.781284 -2.19172 -4.09296 0.684089 -2.22397 -26.6186 1.40378 -1.85576 -6.60601 1.40377 -1.85577 98.206 -46.4222 -88.4436 18.3526 -14.7874 -15.1654 -18.7734 4.45374 -79.0831 -12.2045 -0.492168 -0.512211 -85.4223 -52.4553 85.9322 -10.1079 -18.589 -9.90325 -4.8809 24.8341 -11.1633 12.244 -1.3894 -14.472 26.084 0.259418 -21.879 -12.6964 5.46403 30.9764 
44.1274 78.2578 -8.09666 82.3021 43.8828 108.182 -165.128 32.6546 70.4134 -69.2707 15.3091 -3.0358 60.4891 15.5535 29.2913 54.9965 11.6001 4.63559 171.155 13.4382 85.9937 -92.2065 -17.7729 -2.45306 57.5276 5.46682 -4.13773 29.8341 -1.27986 -7.41357 -0.18167 9.99071 -90.3245 6.88726 -0.501503 -0.62245 -4.78381 -0.52841 -0.599781 -27.3175 -0.291254 -0.744387 -7.3048 -0.291248 -0.744382 97.8953 -50.317 -88.6063 21.8303 -15.142 -4.80589 -17.7982 -6.74762 -55.5306 -12.7712 -0.358797 -1.96639 -85.3205 -49.6436 85.6889 -4.54875 -22.2642 -31.1133 -3.35579 16.273 -16.1598 14.82 -1.59587 -14.2945 34.8124 -0.128645 -16.9661 -13.2185 5.03291 24.6443 
58.6461 81.3722 -19.5119 69.5897 54.2813 116.161 -175.485 19.0426 74.0187 -61.287 20.4759 -0.208096 61.5869 14.2292 24.5334 60.2779 13.9929 4.59175 169.049 41.3897 93.7712 -101.333 -6.34167 -3.3147 61.8506 -4.1394 -9.18995 33.8417 -7.58505 -9.28303 -1.03701 9.7195 -90.4246 7.43317 -2.25461 -0.719111 -4.23601 -2.28406 -0.619149 -26.782 -1.93427 -1.36365 -6.76935 -1.93428 -1.36364 98.3851 -51.9372 -87.7239 30.138 -14.6714 11.0605 -15.0938 -19.3191 -37.0099 -12.3862 -0.250352 -2.89155 -85.3926 -44.3025 84.8231 -3.82993 -24.5627 -48.1728 2.38859 14.9782 -30.4631 14.6295 -1.78991 -15.7778 34.4885 -0.699202 -12.8198 -10.5783 3.52396 19.9256 
74.6037 85.7749 -35.7847 65.107 55.6952 124.112 -179.354 -0.30544 89.9517 -38.4916 24.8936 4.19442 53.832 -4.86706 5.63157 45.4693 6.90382 -0.860319 174.758 55.524 95.7478 -80.4374 -6.86745 -2.26523 66.5697 -6.29678 -0.388028 38.355 -14.8266 -9.92137 -1.3525 9.30348 -91.0326 8.23974 -3.15334 -1.85329 -3.42847 -3.23184 -1.71264 -25.9737 -2.45073 -2.71536 -5.961 -2.45072 -2.71536 97.5827 -48.7179 -89.2418 39.5581 -11.9515 27.659 -12.0817 -13.2333 -36.0986 -9.09268 0.0350232 -6.01828 -83.6545 -41.9782 87.3485 -0.451929 -23.9803 -42.2299 10.6602 11.4005 -57.4394 17.758 -2.38771 -17.2552 33.402 0.515922 -14.2631 -13.9557 4.44046 21.2398 
90.7945 88.6364 -53.2966 69.1827 54.0618 121.447 178.358 -12.3293 87.6441 -40.3 21.254 7.08975 44.9768 -13.071 2.15426 26.6197 -1.56625 8.02672 174.259 53.3448 95.5509 -45.9947 -13.2353 3.52572 62.745 3.52284 9.15695 42.3756 -22.4513 -13.4556 -1.44224 9.25089 -91.3141 8.3307 -3.45698 -2.38906 -3.33755 -3.55873 -2.23455 -25.878 -2.57955 -3.31736 -5.86536 -2.57953 -3.31736 95.7947 -49.1482 -91.9985 37.4452 -11.6963 28.9739 -6.92415 -4.30132 -37.2896 -4.88961 0.071666 -7.75025 -81.924 -45.3979 90.5202 -0.785283 -12.1507 -24.1797 5.5946 4.452 -74.2711 17.9162 -1.82594 -14.0468 35.3156 0.908727 -18.7257 -20.5146 4.92368 27.1868 
105.86 87.5197 -69.9595 78.2392 52.1971 113.068 -176.151 -3.90388 88.0816 -82.4768 9.70477 5.73781 49.6267 -7.07825 6.95246 25.6688 -2.0268 7.91163 162.982 45.8086 101.866 -48.563 -10.2679 8.63076 63.3961 3.17452 7.97711 35.1325 -9.19389 -5.65695 -0.938517 9.75929 -91.2532 7.32582 -2.41507 -2.3629 -4.34479 -2.51671 -2.25434 -26.8721 -1.59359 -2.97913 -6.85948 -1.59358 -2.97912 96.7843 -52.8474 -90.0645 28.8848 -10.5217 13.7284 -3.89628 -1.72297 -38.3902 -5.46006 0.0492546 -6.97293 -83.2841 -50.925 88.9243 -10.3731 -5.45391 -14.5228 6.12833 16.493 -49.2923 13.441 -1.72146 -16.0715 36.5517 1.05063 -18.8038 -18.9057 5.54553 28.0166 
